<svg width="22" height="16" viewBox="0 0 22 16" fill="#502314" xmlns="http://www.w3.org/2000/svg">
<path fill-rule="evenodd" clip-rule="evenodd" d="M-nan -nanL1.5858 9.29424L5.08006 13.3814C5.42187 13.8013 5.93153 14.0491 6.47291 14.0585L11.7857 14.0485H16.3414C18.8982 14.0635 20.9834 12.0039 21 9.4471V5.80426C20.9842 3.24695 18.8987 1.1864 16.3414 1.20144L6.47291 1.21144C5.93176 1.22051 5.42215 1.46774 5.08006 1.88715L1.5858 5.97569C0.804733 6.944 0.804733 8.32594 1.5858 9.29424L-nan -nanL-nan -nanZ" stroke="#502314" stroke-width="2" stroke-linecap="round" stroke-linejoin="round"/>
<path d="M10.4656 4.77191C10.0706 4.38591 9.43751 4.39321 9.05151 4.78822C8.66552 5.18322 8.67282 5.81634 9.06782 6.20234L10.4656 4.77191ZM11.2607 8.34518C11.6557 8.73117 12.2888 8.72387 12.6748 8.32887C13.0608 7.93387 13.0535 7.30075 12.6585 6.91475L11.2607 8.34518ZM12.6596 6.91612C12.2654 6.52935 11.6322 6.53541 11.2455 6.92966C10.8587 7.3239 10.8648 7.95704 11.259 8.3438L12.6596 6.91612ZM13.4433 10.4866C13.8375 10.8734 14.4707 10.8674 14.8574 10.4731C15.2442 10.0789 15.2381 9.44573 14.8439 9.05896L13.4433 10.4866ZM12.6583 8.34517C13.0533 7.95918 13.0606 7.32606 12.6746 6.93105C12.2886 6.53605 11.6555 6.52875 11.2605 6.91475L12.6583 8.34517ZM9.06764 9.05759C8.67264 9.44359 8.66533 10.0767 9.05133 10.4717C9.43732 10.8667 10.0704 10.874 10.4654 10.488L9.06764 9.05759ZM11.259 6.91612C10.8648 7.30289 10.8587 7.93603 11.2455 8.33027C11.6322 8.72452 12.2654 8.73058 12.6596 8.34381L11.259 6.91612ZM14.8439 6.20097C15.2381 5.8142 15.2442 5.18107 14.8574 4.78682C14.4707 4.39257 13.8375 4.38651 13.4433 4.77328L14.8439 6.20097ZM9.06782 6.20234L11.2607 8.34518L12.6585 6.91475L10.4656 4.77191L9.06782 6.20234ZM11.259 8.3438L13.4433 10.4866L14.8439 9.05896L12.6596 6.91612L11.259 8.3438ZM11.2605 6.91475L9.06764 9.05759L10.4654 10.488L12.6583 8.34517L11.2605 6.91475ZM12.6596 8.34381L14.8439 6.20097L13.4433 4.77328L11.259 6.91612L12.6596 8.34381Z" fill="#502314"/>
</svg>
